<?xml version="1.0" standalone="no"?>
<!DOCTYPE svg PUBLIC "-//W3C//DTD SVG 20010904//EN"
 "http://www.w3.org/TR/2001/REC-SVG-20010904/DTD/svg10.dtd">
<svg version="1.0" xmlns="http://www.w3.org/2000/svg"
 width="398.000000pt" height="398.000000pt" viewBox="0 0 398.000000 398.000000"
 preserveAspectRatio="xMidYMid meet">
<metadata>
Created by potrace 1.14, written by Peter Selinger 2001-2017
</metadata>
<g transform="translate(0.000000,398.000000) scale(0.100000,-0.100000)"
fill="#000000" stroke="none">
<path d="M2195 3937 c-189 -91 -281 -256 -269 -486 2 -51 7 -97 9 -102 6 -8
-77 15 -105 30 -9 5 -29 11 -45 15 -17 3 -41 9 -55 12 -51 11 -178 5 -240 -11
-416 -106 -795 -498 -938 -970 -27 -88 -36 -127 -57 -234 -2 -13 -7 -49 -10
-80 -4 -31 -8 -72 -11 -91 -5 -44 -5 -302 1 -355 2 -22 6 -65 9 -95 3 -30 8
-65 10 -77 2 -11 7 -43 11 -70 17 -126 76 -304 148 -450 84 -168 167 -283 312
-429 118 -118 149 -144 275 -229 221 -148 482 -250 758 -295 83 -14 306 -18
402 -7 155 16 329 67 465 134 265 132 515 391 688 713 43 81 93 208 84 216 -2
3 -30 -11 -62 -30 -116 -70 -222 -88 -316 -53 -95 36 -190 151 -239 290 -17
48 -22 54 -72 73 -71 29 -136 87 -160 143 -26 61 -25 166 2 255 l21 67 -25 52
c-59 121 -52 207 23 283 38 40 58 52 123 78 34 14 36 16 33 57 -10 154 92 259
254 261 29 0 46 7 63 25 31 35 115 73 159 73 47 0 94 -16 147 -51 52 -35 54
-23 11 64 -153 302 -439 579 -719 695 -79 32 -81 33 -195 57 -70 14 -274 15
-340 1 -66 -15 -152 -40 -179 -53 -26 -13 -30 -13 -50 6 -64 60 -88 178 -52
253 35 73 152 168 271 219 l53 23 -46 53 c-25 29 -53 53 -62 53 -8 0 -47 -15
-85 -33z"/>
</g>
</svg>
