<svg xmlns="http://www.w3.org/2000/svg" version="1.1" xmlns:xlink="http://www.w3.org/1999/xlink" xmlns:svgjs="http://svgjs.dev/svgjs" width="2000" height="398" viewBox="0 0 2000 398"><g transform="matrix(1,0,0,1,-1.2121212121212466,-0.38598917738167415)"><svg viewBox="0 0 396 79" data-background-color="#ffffff" preserveAspectRatio="xMidYMid meet" height="398" width="2000" xmlns="http://www.w3.org/2000/svg" xmlns:xlink="http://www.w3.org/1999/xlink"><g id="tight-bounds" transform="matrix(1,0,0,1,0.2400000000000091,0.07661594224410351)"><svg viewBox="0 0 395.52 78.84676811551181" height="78.84676811551181" width="395.52"><g><svg viewBox="0 0 490.3662692253048 97.75433738186751" height="78.84676811551181" width="395.52"><g transform="matrix(1,0,0,1,0,13.51018700429573)"><svg viewBox="0 0 395.52 70.73396337327605" height="70.73396337327605" width="395.52"><g><svg viewBox="0 0 395.52 70.73396337327605" height="70.73396337327605" width="395.52"><g><svg viewBox="0 0 395.52 70.73396337327605" height="70.73396337327605" width="395.52"><g transform="matrix(1,0,0,1,0,0)"><svg width="395.52" viewBox="2.7 -39.2 221.13000000000002 39.550000000000004" height="70.73396337327605" data-palette-color="#dd5454"><path d="M7-31Q5.15-31 3.93-32.18 2.7-33.35 2.7-35.1L2.7-35.1Q2.7-36.85 3.93-38.02 5.15-39.2 7-39.2L7-39.2Q8.85-39.2 10.08-38.02 11.3-36.85 11.3-35.1L11.3-35.1Q11.3-33.35 10.08-32.18 8.85-31 7-31L7-31ZM3.45-27.7L10.45-27.7 10.45 0 3.45 0 3.45-27.7ZM24.35-34.9L24.35-5.55 35.85-5.55 35.85 0 17.35 0 17.35-34.9 24.35-34.9ZM56.5 0.35Q51.6 0.35 47.5-1.95 43.4-4.25 41-8.33 38.6-12.4 38.6-17.55L38.6-17.55Q38.6-22.65 41-26.73 43.4-30.8 47.5-33.1 51.6-35.4 56.5-35.4L56.5-35.4Q61.45-35.4 65.52-33.1 69.59-30.8 71.97-26.73 74.34-22.65 74.34-17.55L74.34-17.55Q74.34-12.4 71.97-8.33 69.59-4.25 65.5-1.95 61.4 0.35 56.5 0.35L56.5 0.35ZM56.5-5.9Q59.65-5.9 62.05-7.33 64.45-8.75 65.8-11.4 67.15-14.05 67.15-17.55L67.15-17.55Q67.15-21.05 65.8-23.68 64.45-26.3 62.05-27.7 59.65-29.1 56.5-29.1L56.5-29.1Q53.35-29.1 50.92-27.7 48.5-26.3 47.15-23.68 45.8-21.05 45.8-17.55L45.8-17.55Q45.8-14.05 47.15-11.4 48.5-8.75 50.92-7.33 53.35-5.9 56.5-5.9L56.5-5.9ZM109.39-34.95L109.39 0 102.39 0 86.54-23.95 86.54 0 79.54 0 79.54-34.95 86.54-34.95 102.39-10.95 102.39-34.95 109.39-34.95ZM148.64-24.4L140.59-24.4Q139.39-26.6 137.29-27.75 135.19-28.9 132.39-28.9L132.39-28.9Q129.29-28.9 126.89-27.5 124.49-26.1 123.14-23.5 121.79-20.9 121.79-17.5L121.79-17.5Q121.79-14 123.17-11.4 124.54-8.8 126.99-7.4 129.44-6 132.69-6L132.69-6Q136.69-6 139.24-8.13 141.79-10.25 142.59-14.05L142.59-14.05 130.59-14.05 130.59-19.4 149.49-19.4 149.49-13.3Q148.79-9.65 146.49-6.55 144.19-3.45 140.56-1.58 136.94 0.3 132.44 0.3L132.44 0.3Q127.39 0.3 123.31-1.98 119.24-4.25 116.92-8.3 114.59-12.35 114.59-17.5L114.59-17.5Q114.59-22.65 116.92-26.73 119.24-30.8 123.31-33.08 127.39-35.35 132.39-35.35L132.39-35.35Q138.29-35.35 142.64-32.48 146.99-29.6 148.64-24.4L148.64-24.4ZM174.94-29.25L161.69-29.25 161.69-20.5 173.44-20.5 173.44-14.95 161.69-14.95 161.69-5.7 174.94-5.7 174.94 0 154.69 0 154.69-34.95 174.94-34.95 174.94-29.25ZM205.19-34.9L212.64-34.9 199.84 0 191.34 0 178.53-34.9 186.03-34.9 195.64-7.15 205.19-34.9ZM216.83-34.9L223.83-34.9 223.83 0 216.83 0 216.83-34.9Z" opacity="1" transform="matrix(1,0,0,1,0,0)" fill="#000000" class="undefined-text-0" data-fill-palette-color="primary" id="text-0"></path></svg></g></svg></g></svg></g></svg></g><g transform="matrix(1,0,0,1,412.2185911373095,0)"><svg viewBox="0 0 78.14767808799527 97.75433738186751" height="97.75433738186751" width="78.14767808799527"><g><svg xmlns="http://www.w3.org/2000/svg" xmlns:xlink="http://www.w3.org/1999/xlink" version="1.1" x="0" y="0" viewBox="13.643078328622053 4.223000000000008 72.71392167137796 90.95729272236031" enable-background="new 0 0 100 100" xml:space="preserve" height="97.75433738186751" width="78.14767808799527" class="icon-icon-0" data-fill-palette-color="accent" id="icon-0"><path d="M71.683 64.62c-8.67-2.064-4.317-11.069-4.317-11.069-4.972-7.717 3.509-9.701 3.509-9.701-0.933-7.957 6.605-7.019 6.605-7.019 4.642-5.066 8.877 0 8.877 0l-0.268-0.407c0.946-0.395-12.268-26.439-33.912-18.051-0.161 0.062-0.317 0.114-0.473 0.166-6.812-7.239 5.903-11.72 5.903-11.72l-2.226-2.596c-8.933 2.808-8.942 10.158-8.079 14.47-3.499-0.885-6.551-3.47-15.048 0.609 0 0-23.172 10.033-17.804 43.162 4.821 29.747 44.082 43.555 62.953 22.771 0 0 7.417-7.863 8.952-14.889C74.985 78.656 71.683 64.62 71.683 64.62z" fill="#000000" data-fill-palette-color="accent"></path></svg></g></svg></g></svg></g><defs></defs></svg><rect width="395.52" height="78.84676811551181" fill="none" stroke="none" visibility="hidden"></rect></g></svg></g></svg>